Coordinates
version=1
nRows=16
nColumns=30
inDegrees=yes

Units are S.I. units (second, meters, Newtons, ...)
Angles are in degrees.

endheader
time	floatyaw	floatroll	floatpitch	floatx	floaty	floatz	pro_sup_l	deviation_l	flexion_l	cmc_flexion_l	cmc_abduction_l	mp_flexion_l	ip_flexion_l	2mcp_flexion_l	2mcp_abduction_l	2pm_flexion_l	2md_flexion_l	3mcp_flexion_l	3mcp_abduction_l	3pm_flexion_l	3md_flexion_l	4mcp_flexion_l	4mcp_abduction_l	4pm_flexion_l	4md_flexion_l	5mcp_flexion_l	5mcp_abduction_l	5pm_flexion_l	5md_flexion_l
0.005000	-0.679314	-3.115271	87.889519	0.160254	-0.232467	0.171683	114.689765	21.826042	15.745360	0.057302	38.670896	-16.371664	-26.687301	37.888010	9.838126	44.074567	40.060205	30.278969	5.861873	48.429466	45.083051	31.844634	-4.841952	68.178548	48.823713	23.201702	-10.449235	58.178626	42.426800
0.015000	-0.679314	-3.115271	87.889519	0.159445	-0.231767	0.170953	114.027325	21.360775	15.481312	0.942438	38.914154	-16.749734	-29.068923	37.680302	9.744046	44.203441	41.210144	29.825981	5.782466	48.897628	46.065097	31.244314	-4.937916	68.844491	49.822903	22.898352	-10.413029	58.317213	42.882748
0.025000	-0.679314	-3.115271	87.889519	0.158614	-0.231097	0.170224	113.441170	20.938408	15.196829	1.796538	39.179127	-17.037560	-31.525462	37.394280	9.660053	44.390839	42.335501	29.329050	5.716107	49.374326	47.004058	30.651363	-5.028154	69.453809	50.766266	22.596782	-10.372138	58.461493	43.321424
0.035000	-0.679314	-3.115271	87.889519	0.157804	-0.230489	0.169494	112.936852	20.553518	14.917838	2.540070	39.445331	-17.200278	-33.909288	37.076371	9.594255	44.602109	43.385344	28.839116	5.666187	49.805396	47.864452	30.108873	-5.108960	69.973751	51.619231	22.337553	-10.327762	58.585393	43.719897
0.045000	-0.679314	-3.115271	87.889519	0.157048	-0.229980	0.168761	112.506091	20.195848	14.673979	3.113070	39.692711	-17.222877	-36.071029	36.765270	9.553035	44.797615	44.317272	28.398522	5.635093	50.145253	48.615559	29.643814	-5.179292	70.389558	52.363217	22.139322	-10.287062	58.679358	44.067054
0.055000	-0.679314	-3.115271	87.889519	0.156366	-0.229598	0.168033	112.134303	19.857917	14.489028	3.490435	39.903624	-17.120437	-37.883500	36.480453	9.538835	44.950076	45.102544	28.029682	5.623146	50.374457	49.232644	29.264906	-5.240013	70.704574	52.991894	22.001496	-10.260683	58.744429	44.359928
0.065000	-0.679314	-3.115271	87.889519	0.155760	-0.229361	0.167340	111.809880	19.540527	14.371296	3.686074	40.066710	-16.935581	-39.265959	36.224489	9.548591	45.051886	45.729219	27.734990	5.627703	50.503840	49.702118	28.967842	-5.292027	70.933621	53.506166	21.913636	-10.256868	58.782922	44.601183
0.075000	-0.679314	-3.115271	87.889519	0.155220	-0.229261	0.166726	111.530817	19.253204	14.309199	3.744207	40.181751	-16.722709	-40.202654	35.996768	9.574117	45.109302	46.202684	27.506709	5.643283	50.563753	50.028196	28.743583	-5.334991	71.094450	53.912865	21.864626	-10.275852	58.794611	44.799214
0.085000	-0.679314	-3.115271	87.889519	0.154740	-0.229269	0.166245	111.305196	19.009569	14.275982	3.722085	40.261372	-16.527166	-40.746921	35.806472	9.604670	45.131014	46.543211	27.338698	5.663016	50.586433	50.235377	28.584567	-5.367548	71.201513	54.226546	21.847207	-10.308508	58.779126	44.967676
0.095000	-0.679314	-3.115271	87.889519	0.154322	-0.229342	0.165935	111.144781	18.820412	14.242545	3.671896	40.326458	-16.371224	-41.005016	35.673130	9.630445	45.122392	46.780307	27.230963	5.680731	50.593651	50.362442	28.485947	-5.388605	71.264482	54.469321	21.857123	-10.340549	58.740467	45.120873
0.105000	-0.679314	-3.115271	87.889519	0.153983	-0.229435	0.165804	111.054712	18.688082	14.191670	3.628668	40.397197	-16.254023	-41.103157	35.613929	9.645177	45.090121	46.944016	27.184283	5.692455	50.596793	50.448972	28.442167	-5.398508	71.291838	54.665330	21.888677	-10.359761	58.690583	45.265284
0.115000	-0.679314	-3.115271	87.889519	0.153742	-0.229515	0.165822	111.025433	18.604641	14.125343	3.607113	40.485076	-16.163028	-41.150996	35.628035	9.646912	45.051260	47.055410	27.190480	5.696704	50.605798	50.520694	28.441525	-5.399428	71.296752	54.831996	21.929969	-10.361674	58.650101	45.391900
0.125000	-0.679314	-3.115271	87.889519	0.153614	-0.229569	0.165933	111.032588	18.554162	14.061075	3.606099	40.589729	-16.087880	-41.216456	35.690273	9.637284	45.035861	47.121042	27.227396	5.693854	50.636129	50.581714	28.462655	-5.394938	71.299570	54.974085	21.961515	-10.350313	58.643076	45.475648
0.135000	-0.679314	-3.115271	87.889519	0.153592	-0.229598	0.166076	111.045691	18.517789	14.019930	3.616615	40.700928	-16.027815	-41.319743	35.759367	9.620147	45.077062	47.135517	27.263965	5.685349	50.705304	50.618496	28.476563	-5.388957	71.322408	55.085235	21.960555	-10.334207	58.684605	45.485378
0.145000	-0.679314	-3.115271	87.889519	0.153645	-0.229616	0.166200	111.040285	18.479319	14.013752	3.628919	40.803837	-15.989734	-41.444658	35.795932	9.600132	45.193303	47.091453	27.272845	5.673122	50.820853	50.613507	28.454929	-5.384411	71.377835	55.156344	21.909867	-10.320815	58.767110	45.401231
0.155000	-0.679314	-3.115271	87.889519	0.153725	-0.229633	0.166280	111.006165	18.429229	14.038980	3.636541	40.884980	-15.980720	-41.558398	35.779155	9.581332	45.375204	46.990220	27.242032	5.659246	50.970753	50.559692	28.380647	-5.382202	71.460131	55.185073	21.806140	-10.312808	58.856352	45.229711
